HIERARCHY
ROOT Hips
{
	OFFSET -0.001795 -0.223333 0.028219
	CHANNELS 6 Xposition Yposition Zposition Zrotation Yrotation Xrotation 
	JOINT LeftUpLeg
	{
		OFFSET 0.069520 -0.091406 -0.006815
		CHANNELS 3 Zrotation Yrotation Xrotation
		JOINT LeftLeg
		{
			OFFSET 0.034277 -0.375199 -0.004496
			CHANNELS 3 Zrotation Yrotation Xrotation
			JOINT LeftFoot
			{
				OFFSET -0.013596 -0.397961 -0.043693
				CHANNELS 3 Zrotation Yrotation Xrotation
				JOINT LeftToe
				{
					OFFSET 0.026358 -0.055791 0.119288
					CHANNELS 3 Zrotation Yrotation Xrotation
					End Site
					{
						OFFSET 0.000000 0.000000 0.000000
					}
				}
			}
		}
	}
	JOINT RightUpLeg
	{
		OFFSET -0.067670 -0.090522 -0.004320
		CHANNELS 3 Zrotation Yrotation Xrotation
		JOINT RightLeg
		{
			OFFSET -0.038290 -0.382569 -0.008850
			CHANNELS 3 Zrotation Yrotation Xrotation
			JOINT RightFoot
			{
				OFFSET 0.015774 -0.398415 -0.042312
				CHANNELS 3 Zrotation Yrotation Xrotation
				JOINT RightToe
				{
					OFFSET -0.025372 -0.048144 0.123348
					CHANNELS 3 Zrotation Yrotation Xrotation
					End Site
					{
						OFFSET 0.000000 0.000000 0.000000
					}
				}
			}
		}
	}
	JOINT Spine
	{
		OFFSET -0.002533 0.108963 -0.026696
		CHANNELS 3 Zrotation Yrotation Xrotation
		JOINT Spine1
		{
			OFFSET 0.005487 0.135180 0.001092
			CHANNELS 3 Zrotation Yrotation Xrotation
			JOINT Spine2
			{
				OFFSET 0.001457 0.052922 0.025425
				CHANNELS 3 Zrotation Yrotation Xrotation
				JOINT Neck
				{
					OFFSET -0.002778 0.213870 -0.042857
					CHANNELS 3 Zrotation Yrotation Xrotation
					JOINT Head
					{
						OFFSET 0.005152 0.064970 0.051349
						CHANNELS 3 Zrotation Yrotation Xrotation
						End Site
						{
							OFFSET 0.000000 0.000000 0.000000
						}
					}
				}
				JOINT LeftShoulder
				{
					OFFSET 0.078845 0.121749 -0.034090
					CHANNELS 3 Zrotation Yrotation Xrotation
					JOINT LeftArm
					{
						OFFSET 0.090977 0.030469 -0.008868
						CHANNELS 3 Zrotation Yrotation Xrotation
						JOINT LeftForeArm
						{
							OFFSET 0.259612 -0.012772 -0.027456
							CHANNELS 3 Zrotation Yrotation Xrotation
							JOINT LeftHand
							{
								OFFSET 0.249234 0.008986 -0.001171
								CHANNELS 3 Zrotation Yrotation Xrotation
								End Site
								{
									OFFSET 0.000000 0.000000 0.000000
								}
							}
						}
					}
				}
				JOINT RightShoulder
				{
					OFFSET -0.081759 0.118833 -0.038615
					CHANNELS 3 Zrotation Yrotation Xrotation
					JOINT RightArm
					{
						OFFSET -0.096012 0.032551 -0.009143
						CHANNELS 3 Zrotation Yrotation Xrotation
						JOINT RightForeArm
						{
							OFFSET -0.253742 -0.013329 -0.021401
							CHANNELS 3 Zrotation Yrotation Xrotation
							JOINT RightHand
							{
								OFFSET -0.255298 0.007772 -0.005559
								CHANNELS 3 Zrotation Yrotation Xrotation
								End Site
								{
									OFFSET 0.000000 0.000000 0.000000
								}
							}
						}
					}
				}
			}
		}
	}
}
MOTION
Frames: 15
Frame Time: 0.050000
0.000000 0.949328 0.000000 -1.051417 -3.269127 6.167034 5.877017 -0.235172 -2.908260 0.220915 0.176438 -5.514322 -2.347200 2.205945 17.614099 0.000000 0.000000 0.000000 -2.661474 0.455345 -4.437433 -1.544884 -0.162345 -6.023220 -0.571383 -9.087338 21.091100 0.000000 0.000000 0.000000 4.787513 0.156889 -3.423934 -2.153725 0.996232 -3.921781 -2.314486 3.964246 3.298645 4.739420 -2.762936 -6.520167 0.000000 0.000000 0.000000 -14.999552 0.916918 -2.397089 -57.849377 -8.461505 -2.669436 -8.832043 -20.843270 2.281649 0.000000 0.000000 0.000000 14.897053 -7.515292 -4.671411 63.196068 3.737412 -3.842630 4.316277 19.482733 1.392486 0.000000 0.000000 0.000000 
0.000187 0.947986 0.001835 -1.398125 -4.213980 6.941120 5.989169 -0.215888 -2.445015 0.516881 0.229614 -7.208734 -1.821122 2.832513 17.625082 0.000000 0.000000 0.000000 -2.696878 0.541933 -5.440474 -0.967184 -0.176703 -5.760785 -0.188181 -8.558851 20.661776 0.000000 0.000000 0.000000 5.657315 0.180069 -3.736404 -2.858222 1.284905 -4.104711 -2.232000 5.024803 2.758284 4.636938 -2.646150 -6.562116 0.000000 0.000000 0.000000 -16.021304 1.806399 -3.100644 -57.063572 -8.049347 -2.754177 -9.560181 -20.865273 2.386041 0.000000 0.000000 0.000000 14.227944 -8.783058 -5.134235 64.563108 3.289459 -4.028706 4.367119 19.279662 1.395811 0.000000 0.000000 0.000000 
0.000337 0.947801 0.003071 -1.017256 -3.591169 6.594538 5.684609 -0.211852 -2.267882 0.384394 0.226624 -6.996885 -2.167870 2.387143 17.520132 0.000000 0.000000 0.000000 -2.742676 0.525452 -5.289422 -1.588580 -0.112775 -5.064288 -0.606105 -9.012401 20.297088 0.000000 0.000000 0.000000 5.345107 0.131550 -3.186176 -2.267987 1.030632 -5.454850 -3.194660 5.263438 3.368201 4.696372 -2.746975 -6.013661 0.000000 0.000000 0.000000 -15.612530 1.694844 -3.108382 -56.552166 -7.199631 -3.209867 -10.231691 -20.936692 2.487742 0.000000 0.000000 0.000000 15.980660 -8.044319 -4.875377 62.491282 3.264949 -4.029416 4.312811 18.873410 1.386670 0.000000 0.000000 0.000000 
0.000358 0.947839 0.004103 -1.151114 -3.499118 6.978230 6.148940 -0.226260 -2.491705 -0.164539 0.263973 -7.237332 -2.219599 2.351684 17.622759 0.000000 0.000000 0.000000 -2.701902 0.560984 -5.714990 -1.409219 -0.114154 -4.895727 -0.663730 -9.098790 20.352047 0.000000 0.000000 0.000000 5.453449 0.118176 -3.121290 -2.659344 1.195702 -5.204903 -2.617004 5.013683 2.289236 4.418886 -2.582174 -5.761655 0.000000 0.000000 0.000000 -15.007277 2.754139 -3.480756 -57.786395 -7.257939 -3.170086 -9.429403 -20.939926 2.340703 0.000000 0.000000 0.000000 14.601018 -8.643099 -5.057312 63.165824 3.009277 -4.038192 4.975844 18.677300 1.444211 0.000000 0.000000 0.000000 
0.000313 0.947837 0.004837 -1.009749 -2.981194 6.762600 5.855758 -0.224628 -2.336176 0.160377 0.245763 -7.215238 -2.491611 2.015881 17.572260 0.000000 0.000000 0.000000 -2.724734 0.532505 -5.391915 -1.577773 -0.100456 -4.826347 -0.942575 -9.432249 20.315311 0.000000 0.000000 0.000000 5.310481 0.090229 -2.799063 -2.367970 1.082548 -5.026604 -2.811725 5.136150 2.214866 4.065938 -2.176863 -6.599546 0.000000 0.000000 0.000000 -14.838815 2.636556 -3.476266 -57.632256 -7.211862 -3.192463 -9.477956 -20.676686 2.299050 0.000000 0.000000 0.000000 14.755989 -8.505490 -4.937403 62.992247 3.356531 -3.816614 4.581291 18.319688 1.370708 0.000000 0.000000 0.000000 
0.000268 0.948173 0.005374 -1.011928 -2.959552 6.863554 5.926379 -0.227604 -2.368006 0.044124 0.254741 -7.301533 -2.530110 2.007292 17.715720 0.000000 0.000000 0.000000 -2.769511 0.534472 -5.409604 -1.488519 -0.110477 -4.925640 -0.929431 -9.438761 20.453915 0.000000 0.000000 0.000000 5.230875 0.054623 -2.421897 -2.296121 1.049712 -5.716362 -2.732593 5.643056 2.413344 4.195578 -2.266362 -6.477562 0.000000 0.000000 0.000000 -14.669688 2.878825 -3.638239 -57.659178 -6.931380 -3.368111 -9.076486 -20.467795 2.186969 0.000000 0.000000 0.000000 14.464304 -8.514636 -4.823647 63.349716 3.703759 -3.619558 4.185183 17.763593 1.282850 0.000000 0.000000 0.000000 
0.000347 0.948328 0.005864 -0.917642 -2.647773 6.927514 5.721508 -0.233756 -2.393683 0.260778 0.249424 -7.447275 -2.706791 1.821951 17.801218 0.000000 0.000000 0.000000 -2.629130 0.517668 -5.202730 -1.898070 -0.106578 -5.280691 -1.063588 -9.628287 20.611016 0.000000 0.000000 0.000000 5.182776 0.030641 -2.176506 -2.398796 1.095832 -5.737755 -2.709441 5.629447 2.313235 4.481862 -2.334520 -7.277817 0.000000 0.000000 0.000000 -14.646018 3.129660 -3.780328 -57.425977 -6.528004 -3.540581 -9.021676 -20.125761 2.132730 0.000000 0.000000 0.000000 14.394317 -8.452684 -4.761104 63.315037 4.019079 -3.423414 3.799685 17.164244 1.184726 0.000000 0.000000 0.000000 
0.000653 0.948462 0.006410 -0.906113 -2.257610 7.081669 5.516542 -0.247546 -2.566363 0.628252 0.234940 -7.519784 -2.896061 1.611126 17.827913 0.000000 0.000000 0.000000 -2.398409 0.510580 -5.118769 -2.325144 -0.099476 -5.557157 -1.236211 -9.869697 20.803778 0.000000 0.000000 0.000000 5.108847 0.011806 -1.996106 -2.237791 1.034113 -5.950606 -2.886319 5.875743 2.155838 4.679542 -2.471826 -7.106957 0.000000 0.000000 0.000000 -14.768745 3.215885 -3.938084 -57.239982 -6.149114 -3.693887 -8.918133 -19.770629 2.053134 0.000000 0.000000 0.000000 14.263580 -8.544562 -4.715901 63.381420 4.137448 -3.299390 3.703439 16.302167 1.113902 0.000000 0.000000 0.000000 
0.001163 0.948578 0.007230 -0.921320 -1.948071 7.106477 5.460262 -0.249686 -2.533918 0.743602 0.234611 -7.642104 -3.059433 1.425675 17.848415 0.000000 0.000000 0.000000 -2.351400 0.479533 -4.740259 -2.397798 -0.127051 -6.100068 -1.339303 -10.023709 21.052883 0.000000 0.000000 0.000000 5.086133 -0.009111 -1.769189 -2.213548 1.028239 -6.252972 -2.804198 5.905438 2.153784 4.853227 -2.524962 -7.465360 0.000000 0.000000 0.000000 -14.611845 3.295443 -3.975001 -57.479783 -6.012233 -3.788855 -8.658032 -19.088366 1.932730 0.000000 0.000000 0.000000 14.371138 -8.577138 -4.716913 63.254975 4.316252 -3.193514 3.226425 15.388860 0.989795 0.000000 0.000000 0.000000 
0.001800 0.948361 0.008336 -0.927162 -1.730502 7.070691 5.319506 -0.247132 -2.437463 0.959592 0.227255 -7.692453 -3.146744 1.287669 17.720685 0.000000 0.000000 0.000000 -2.323238 0.454235 -4.435513 -2.483714 -0.139409 -6.383502 -1.435423 -10.143100 21.107971 0.000000 0.000000 0.000000 5.161903 -0.011987 -1.754538 -2.111098 0.990654 -6.461654 -2.842745 5.873725 2.266354 4.867494 -2.455098 -7.927978 0.000000 0.000000 0.000000 -14.597022 3.449674 -4.057231 -57.572632 -5.925956 -3.854731 -8.670101 -18.531367 1.876851 0.000000 0.000000 0.000000 14.110684 -8.601301 -4.681178 63.437390 4.267626 -3.220845 2.924747 14.646386 0.902481 0.000000 0.000000 0.000000 
0.002443 0.948450 0.009591 -0.912729 -1.687478 7.173799 5.278212 -0.247334 -2.405575 0.930311 0.234269 -7.822152 -3.177091 1.260499 17.755655 0.000000 0.000000 0.000000 -2.353168 0.446367 -4.328864 -2.531597 -0.151498 -6.619530 -1.435548 -10.159040 21.228205 0.000000 0.000000 0.000000 5.176383 -0.003964 -1.869875 -2.105541 0.988865 -6.505177 -2.784033 5.737131 2.218548 4.822590 -2.449243 -7.814919 0.000000 0.000000 0.000000 -14.563622 3.318318 -3.967899 -57.890568 -6.065648 -3.807209 -8.363122 -17.404545 1.724065 0.000000 0.000000 0.000000 13.935419 -8.633856 -4.696651 63.642972 4.239148 -3.234653 2.656885 13.932210 0.819936 0.000000 0.000000 0.000000 
0.003008 0.948159 0.010788 -0.893784 -1.524440 7.246421 5.317029 -0.245701 -2.299538 0.781884 0.250760 -8.069565 -3.258293 1.148115 17.709626 0.000000 0.000000 0.000000 -2.386675 0.424204 -4.046045 -2.555834 -0.178171 -7.081146 -1.500755 -10.242823 21.306842 0.000000 0.000000 0.000000 5.037239 0.011065 -2.042653 -1.852456 0.889199 -6.362671 -2.690112 5.243315 2.011242 4.401209 -2.170996 -7.847820 0.000000 0.000000 0.000000 -14.635878 3.540593 -4.020631 -58.371657 -6.207838 -3.746150 -8.346340 -16.285573 1.623148 0.000000 0.000000 0.000000 13.657313 -8.803811 -4.811237 63.967576 3.926902 -3.404837 2.369594 13.426371 0.748424 0.000000 0.000000 0.000000 
0.003426 0.948253 0.011756 -0.952171 -1.729570 7.327938 5.207681 -0.239847 -2.207373 0.999715 0.248872 -8.202782 -3.151633 1.282836 17.734537 0.000000 0.000000 0.000000 -2.346489 0.420872 -3.996326 -2.590994 -0.188943 -7.276812 -1.368436 -10.094067 21.391020 0.000000 0.000000 0.000000 4.912840 0.016815 -2.097076 -1.594072 0.782270 -6.426932 -2.596067 5.012919 1.881787 4.232831 -2.117509 -7.556636 0.000000 0.000000 0.000000 -14.791149 3.504655 -3.976154 -58.664027 -6.183249 -3.755439 -8.503398 -15.176209 1.543305 0.000000 0.000000 0.000000 13.380028 -8.856879 -4.854459 64.142200 3.453468 -3.670829 2.206812 13.533429 0.732372 0.000000 0.000000 0.000000 
0.003666 0.948230 0.012384 -0.939282 -1.701460 7.524270 5.198422 -0.256674 -2.512413 0.970363 0.240098 -7.982810 -3.135407 1.286348 17.669642 0.000000 0.000000 0.000000 -2.289732 0.434032 -4.153317 -2.749633 -0.184845 -7.299512 -1.389634 -10.128337 21.421828 0.000000 0.000000 0.000000 4.736564 0.032843 -2.300248 -1.430036 0.714365 -6.145459 -2.451089 4.433663 1.539536 3.778694 -1.836020 -7.508399 0.000000 0.000000 0.000000 -14.759545 3.563619 -3.903175 -59.022060 -6.385327 -3.633900 -8.632965 -14.066807 1.458557 0.000000 0.000000 0.000000 13.046426 -8.803151 -4.870186 64.470153 3.050826 -3.900608 2.025630 13.614811 0.706178 0.000000 0.000000 0.000000 
0.003734 0.948111 0.012681 -0.948582 -1.945579 7.700103 5.174191 -0.262008 -2.639751 0.983102 0.239842 -7.976536 -2.993294 1.449850 17.650041 0.000000 0.000000 0.000000 -2.249991 0.448906 -4.324189 -2.850665 -0.186444 -7.374570 -1.270683 -9.985041 21.390928 0.000000 0.000000 0.000000 4.679453 0.047567 -2.485444 -1.348712 0.677224 -6.157047 -2.444100 4.213449 1.505892 3.708240 -1.773029 -7.736619 0.000000 0.000000 0.000000 -14.734432 3.233841 -3.682953 -59.065191 -6.404879 -3.609436 -8.876077 -13.453438 1.430055 0.000000 0.000000 0.000000 13.086460 -8.904098 -4.973784 64.445429 2.652974 -4.142302 2.188602 13.718032 0.721709 0.000000 0.000000 0.000000 
